<svg width="142" height="143" viewBox="0 0 142 143" fill="none" xmlns="http://www.w3.org/2000/svg">
<circle cx="43.75" cy="70.75" r="2" fill="#4FABAC" stroke="#63A4F5" stroke-width="0.5"/>
<path d="M65.5 55C66.8725 53.4908 70.7941 51.3778 75.5 55" stroke="#63A4F5" stroke-width="5" stroke-linecap="round"/>
<path d="M65.5 65C66.8725 63.4908 70.7941 61.3778 75.5 65" stroke="#63A4F5" stroke-width="5" stroke-linecap="round"/>
<path d="M65.5 81.5C67.0784 79.9908 71.5882 77.8778 77 81.5" stroke="#63A4F5" stroke-width="5" stroke-linecap="round"/>
<path d="M65.5 91.5C67.0784 89.9908 71.5882 87.8778 77 91.5" stroke="#63A4F5" stroke-width="5" stroke-linecap="round"/>
<path d="M96 59.75V85" stroke="#63A4F5" stroke-width="5" stroke-linecap="round"/>
<path d="M96 59.75H120" stroke="#63A4F5" stroke-width="5" stroke-linecap="round"/>
<path d="M120 59.75V85.5" stroke="#63A4F5" stroke-width="5" stroke-linecap="round"/>
<path d="M104 66V71" stroke="#63A4F5" stroke-width="5" stroke-linecap="round"/>
<path d="M112 66V71" stroke="#63A4F5" stroke-width="5" stroke-linecap="round"/>
<path d="M104 78V83" stroke="#63A4F5" stroke-width="5" stroke-linecap="round"/>
<path d="M53 86H17.5C18.824 89.912 24.2028 97.6881 35.1259 97.4965C46.049 97.3049 51.5932 89.7523 53 86Z" stroke="#63A4F5" stroke-width="5" stroke-linecap="round"/>
<path d="M125 86H89.5C90.824 89.912 96.2028 97.6881 107.126 97.4965C118.049 97.3049 123.593 89.7523 125 86Z" stroke="#63A4F5" stroke-width="5" stroke-linecap="round"/>
<path d="M15.5 63.5C21.2853 73.5949 37.5847 89.2794 56.5 71.2589" stroke="#63A4F5" stroke-width="5" stroke-linecap="round"/>
<path d="M16 79C21.8554 69.0712 38.153 53.5106 56.5 70.6989" stroke="#63A4F5" stroke-width="5" stroke-linecap="round"/>
<path d="M53 113.098C55 111.515 60.6 109.298 67 113.098" stroke="#63A4F5" stroke-width="5" stroke-linecap="round"/>
<path d="M67 113.098C68.5 114 73 115 76.25 113.098C78.3333 111.515 84 109.298 90 113.098" stroke="#63A4F5" stroke-width="5" stroke-linecap="round"/>
<path d="M41.5 122.709C42.6816 123.499 47 125 51.8809 122.709C54 121.5 58.1094 118.708 64.7936 122.709C67.2567 124.184 72 127.5 78.7191 122.709C80.4915 121.042 85.7579 118.708 92.6447 122.709C94.1638 123.587 97.9617 124.815 101 122.709" stroke="#63A4F5" stroke-width="5" stroke-linecap="round"/>
<path d="M64.5 45.5V93.4147C64.3359 95.7318 62.5805 100.863 56.8711 102.849C54 103.5 49 104.5 46.7812 108.807C45 111.5 38.1187 114.318 33 109.552" stroke="#63A4F5" stroke-width="5" stroke-linecap="round"/>
<path d="M77.0027 45.5V91.8141C76.9244 94.8851 78.5071 101.276 85.4647 102.272C88.5 102.707 93.6916 104.862 97.4525 110.24C99 112 104.739 113.427 108.5 110.24" stroke="#63A4F5" stroke-width="5" stroke-linecap="round"/>
<path d="M107.5 37.75C109.333 40.5 113.15 47.5 113.75 53.5" stroke="#63A4F5" stroke-width="5" stroke-linecap="round"/>
<path d="M107.5 37.5C105.727 40.75 102.945 48 102 53" stroke="#63A4F5" stroke-width="5" stroke-linecap="round"/>
<path d="M35 37.5C36.9333 42.8354 40.84 53.8049 41 55" stroke="#63A4F5" stroke-width="5" stroke-linecap="round"/>
<path d="M35 37.5C32.5806 41.7835 28.1935 50.0805 28 57" stroke="#63A4F5" stroke-width="5" stroke-linecap="round"/>
<path d="M71 2.5C108.815 2.5 139.5 33.3758 139.5 71.5C139.5 109.624 108.815 140.5 71 140.5C33.185 140.5 2.5 109.624 2.5 71.5C2.5 33.3758 33.185 2.5 71 2.5Z" stroke="#63A4F5" stroke-width="5"/>
<path d="M71 18C74.3846 18 77 20.6442 77 23.75C77 26.8558 74.3846 29.5 71 29.5C67.6154 29.5 65 26.8558 65 23.75C65 20.6442 67.6154 18 71 18Z" stroke="#63A4F5" stroke-width="5"/>
<path d="M27 32C28.9942 34.9733 35.9242 39.4735 47.6902 33.6876C51.928 31.9196 61.9988 30.4089 68.3804 38.5091C69.2944 39.6342 71.5712 41.2092 73.366 38.5091C76.025 35.5358 83.5366 30.4089 92.3112 33.6876C98.2109 36.0983 110.708 39.1359 113.5 32" stroke="#63A4F5" stroke-width="5" stroke-linecap="round"/>
</svg> 